<svg width="165" height="44" viewBox="0 0 165 44" fill="none" xmlns="http://www.w3.org/2000/svg">
<path d="M42.6009 8.13333V33.7333H38.8909V8.13333H42.6009Z" fill="white"/>
<path d="M55.5327 34.1208C53.7459 34.1208 52.1866 33.7083 50.8548 32.8833C49.523 32.0583 48.489 30.9042 47.7528 29.4208C47.0166 27.9375 46.6485 26.2042 46.6485 24.2208C46.6485 22.2292 47.0166 20.4875 47.7528 18.9958C48.489 17.5042 49.523 16.3458 50.8548 15.5208C52.1866 14.6958 53.7459 14.2833 55.5327 14.2833C57.3194 14.2833 58.8787 14.6958 60.2105 15.5208C61.5423 16.3458 62.5763 17.5042 63.3125 18.9958C64.0487 20.4875 64.4168 22.2292 64.4168 24.2208C64.4168 26.2042 64.0487 27.9375 63.3125 29.4208C62.5763 30.9042 61.5423 32.0583 60.2105 32.8833C58.8787 33.7083 57.3194 34.1208 55.5327 34.1208ZM55.5451 30.9833C56.7032 30.9833 57.6627 30.675 58.4237 30.0583C59.1848 29.4417 59.7473 28.6208 60.1112 27.5958C60.4835 26.5708 60.6696 25.4417 60.6696 24.2083C60.6696 22.9833 60.4835 21.8583 60.1112 20.8333C59.7473 19.8 59.1848 18.9708 58.4237 18.3458C57.6627 17.7208 56.7032 17.4083 55.5451 17.4083C54.3787 17.4083 53.4109 17.7208 52.6416 18.3458C51.8806 18.9708 51.3139 19.8 50.9417 20.8333C50.5777 21.8583 50.3957 22.9833 50.3957 24.2083C50.3957 25.4417 50.5777 26.5708 50.9417 27.5958C51.3139 28.6208 51.8806 29.4417 52.6416 30.0583C53.4109 30.675 54.3787 30.9833 55.5451 30.9833Z" fill="white"/>
<path d="M80.5436 25.7708V14.5333H84.2661V33.7333H80.6181V30.4083H80.4196C79.9811 31.4333 79.278 32.2875 78.3102 32.9708C77.3506 33.6458 76.1553 33.9833 74.7243 33.9833C73.5 33.9833 72.4164 33.7125 71.4734 33.1708C70.5386 32.6208 69.8024 31.8083 69.2647 30.7333C68.7353 29.6583 68.4706 28.3292 68.4706 26.7458V14.5333H72.1806V26.2958C72.1806 27.6042 72.5405 28.6458 73.2601 29.4208C73.9798 30.1958 74.9145 30.5833 76.0644 30.5833C76.7592 30.5833 77.4499 30.4083 78.1365 30.0583C78.8313 29.7083 79.4062 29.1792 79.8612 28.4708C80.3244 27.7625 80.5519 26.8625 80.5436 25.7708Z" fill="white"/>
<path d="M96.2982 34.1083C94.7597 34.1083 93.3865 33.7125 92.1788 32.9208C90.9793 32.1208 90.0363 30.9833 89.3497 29.5083C88.6714 28.025 88.3323 26.2458 88.3323 24.1708C88.3323 22.0958 88.6756 20.3208 89.3622 18.8458C90.057 17.3708 91.0083 16.2417 92.216 15.4583C93.4237 14.675 94.7927 14.2833 96.3231 14.2833C97.506 14.2833 98.4572 14.4833 99.1769 14.8833C99.9048 15.275 100.467 15.7333 100.864 16.2583C101.27 16.7833 101.584 17.2458 101.807 17.6458H102.031V8.13333H105.741V33.7333H102.118V30.7458H101.807C101.584 31.1542 101.261 31.6208 100.84 32.1458C100.426 32.6708 99.8552 33.1292 99.1273 33.5208C98.3993 33.9125 97.4563 34.1083 96.2982 34.1083ZM97.1172 30.9208C98.1843 30.9208 99.0859 30.6375 99.8221 30.0708C100.567 29.4958 101.129 28.7 101.51 27.6833C101.898 26.6667 102.093 25.4833 102.093 24.1333C102.093 22.8 101.903 21.6333 101.522 20.6333C101.142 19.6333 100.583 18.8542 99.8469 18.2958C99.1107 17.7375 98.2008 17.4583 97.1172 17.4583C96.0005 17.4583 95.0698 17.75 94.3254 18.3333C93.5809 18.9167 93.0184 19.7125 92.6379 20.7208C92.2656 21.7292 92.0795 22.8667 92.0795 24.1333C92.0795 25.4167 92.2698 26.5708 92.6503 27.5958C93.0308 28.6208 93.5933 29.4333 94.3378 30.0333C95.0905 30.625 96.017 30.9208 97.1172 30.9208Z" fill="white"/>
<path d="M119.163 34.1208C117.285 34.1208 115.668 33.7167 114.311 32.9083C112.963 32.0917 111.92 30.9458 111.184 29.4708C110.456 27.9875 110.092 26.25 110.092 24.2583C110.092 22.2917 110.456 20.5583 111.184 19.0583C111.92 17.5583 112.946 16.3875 114.261 15.5458C115.585 14.7042 117.132 14.2833 118.902 14.2833C119.977 14.2833 121.02 14.4625 122.029 14.8208C123.038 15.1792 123.944 15.7417 124.746 16.5083C125.549 17.275 126.181 18.2708 126.645 19.4958C127.108 20.7125 127.34 22.1917 127.34 23.9333V25.2583H112.189V22.4583H123.704C123.704 21.475 123.505 20.6042 123.108 19.8458C122.711 19.0792 122.153 18.475 121.433 18.0333C120.722 17.5917 119.886 17.3708 118.927 17.3708C117.885 17.3708 116.975 17.6292 116.197 18.1458C115.428 18.6542 114.832 19.3208 114.41 20.1458C113.997 20.9625 113.79 21.85 113.79 22.8083V24.9958C113.79 26.2792 114.013 27.3708 114.46 28.2708C114.915 29.1708 115.548 29.8583 116.358 30.3333C117.169 30.8 118.116 31.0333 119.2 31.0333C119.903 31.0333 120.544 30.9333 121.123 30.7333C121.702 30.525 122.203 30.2167 122.624 29.8083C123.046 29.4 123.369 28.8958 123.592 28.2958L127.104 28.9333C126.823 29.975 126.318 30.8875 125.59 31.6708C124.87 32.4458 123.965 33.05 122.873 33.4833C121.789 33.9083 120.552 34.1208 119.163 34.1208Z" fill="white"/>
<path d="M133.853 14.5333L138.06 22.0083L142.303 14.5333H146.361L140.417 24.1333L146.41 33.7333H142.353L138.06 26.5583L133.779 33.7333H129.709L135.64 24.1333L129.783 14.5333H133.853Z" fill="white"/>
<path d="M155.595 34.1583C154.387 34.1583 153.295 33.9333 152.319 33.4833C151.343 33.025 150.569 32.3625 149.999 31.4958C149.436 30.6292 149.155 29.5667 149.155 28.3083C149.155 27.225 149.362 26.3333 149.775 25.6333C150.189 24.9333 150.747 24.3792 151.45 23.9708C152.154 23.5625 152.939 23.2542 153.808 23.0458C154.677 22.8375 155.562 22.6792 156.463 22.5708C157.605 22.4375 158.531 22.3292 159.243 22.2458C159.954 22.1542 160.471 22.0083 160.794 21.8083C161.116 21.6083 161.278 21.2833 161.278 20.8333V20.7458C161.278 19.6542 160.972 18.8083 160.359 18.2083C159.756 17.6083 158.854 17.3083 157.654 17.3083C156.405 17.3083 155.421 17.5875 154.701 18.1458C153.99 18.6958 153.498 19.3083 153.225 19.9833L149.738 19.1833C150.152 18.0167 150.756 17.075 151.55 16.3583C152.352 15.6333 153.274 15.1083 154.317 14.7833C155.359 14.45 156.455 14.2833 157.605 14.2833C158.366 14.2833 159.172 14.375 160.024 14.5583C160.885 14.7333 161.687 15.0583 162.432 15.5333C163.184 16.0083 163.801 16.6875 164.28 17.5708C164.76 18.4458 165 19.5833 165 20.9833V33.7333H161.377V31.1083H161.228C160.988 31.5917 160.628 32.0667 160.148 32.5333C159.669 33 159.052 33.3875 158.3 33.6958C157.547 34.0042 156.645 34.1583 155.595 34.1583ZM156.401 31.1583C157.427 31.1583 158.304 30.9542 159.032 30.5458C159.768 30.1375 160.326 29.6042 160.707 28.9458C161.096 28.2792 161.29 27.5667 161.29 26.8083V24.3333C161.158 24.4667 160.901 24.5917 160.521 24.7083C160.148 24.8167 159.722 24.9125 159.243 24.9958C158.763 25.0708 158.296 25.1417 157.841 25.2083C157.386 25.2667 157.005 25.3167 156.699 25.3583C155.979 25.45 155.322 25.6042 154.726 25.8208C154.139 26.0375 153.667 26.35 153.312 26.7583C152.964 27.1583 152.79 27.6917 152.79 28.3583C152.79 29.2833 153.13 29.9833 153.808 30.4583C154.486 30.925 155.351 31.1583 156.401 31.1583Z" fill="white"/>
<path d="M4.87563 14.5131V0H12.6587V5.06806L4.87563 14.5131Z" fill="url(#paint0_linear_30_1775)"/>
<path d="M36.3969 0.230366L21.0254 0C6.30252 13.0541 -15.2824 40.1298 16.161 44C-5.2423 36.8586 17.9122 9.67539 36.3969 0.230366Z" fill="url(#paint1_linear_30_1775)"/>
<path d="M14.799 23.0366L19.6634 16.8168L36.3969 40.5445H25.8898L14.799 23.0366Z" fill="url(#paint2_linear_30_1775)"/>
<defs>
<linearGradient id="paint0_linear_30_1775" x1="11.199" y1="17.1875" x2="13.9009" y2="47.4462" gradientUnits="userSpaceOnUse">
<stop stop-color="#0055FF"/>
<stop offset="1" stop-color="white"/>
</linearGradient>
<linearGradient id="paint1_linear_30_1775" x1="11.199" y1="17.1875" x2="13.9009" y2="47.4462" gradientUnits="userSpaceOnUse">
<stop stop-color="#0055FF"/>
<stop offset="1" stop-color="white"/>
</linearGradient>
<linearGradient id="paint2_linear_30_1775" x1="11.199" y1="17.1875" x2="13.9009" y2="47.4462" gradientUnits="userSpaceOnUse">
<stop stop-color="#0055FF"/>
<stop offset="1" stop-color="white"/>
</linearGradient>
</defs>
</svg>
